<svg width="32" height="32" viewBox="0 0 32 32" fill="none" xmlns="http://www.w3.org/2000/svg">
<mask id="mask0_243_271" style="mask-type:alpha" maskUnits="userSpaceOnUse" x="0" y="0" width="32" height="32">
<rect width="32" height="32" fill="#D9D9D9"/>
</mask>
<g mask="url(#mask0_243_271)">
<path d="M7.79996 22.8C8.93329 21.9333 10.2 21.25 11.6 20.75C13 20.25 14.4666 20 16 20C17.5333 20 19 20.25 20.4 20.75C21.8 21.25 23.0666 21.9333 24.2 22.8C24.9777 21.8888 25.5833 20.8555 26.0166 19.7C26.45 18.5444 26.6666 17.3111 26.6666 16C26.6666 13.0444 25.6277 10.5277 23.55 8.44996C21.4722 6.37218 18.9555 5.33329 16 5.33329C13.0444 5.33329 10.5277 6.37218 8.44996 8.44996C6.37218 10.5277 5.33329 13.0444 5.33329 16C5.33329 17.3111 5.54996 18.5444 5.98329 19.7C6.41663 20.8555 7.02218 21.8888 7.79996 22.8ZM16 17.3333C14.6888 17.3333 13.5833 16.8833 12.6833 15.9833C11.7833 15.0833 11.3333 13.9777 11.3333 12.6666C11.3333 11.3555 11.7833 10.25 12.6833 9.34996C13.5833 8.44996 14.6888 7.99996 16 7.99996C17.3111 7.99996 18.4166 8.44996 19.3166 9.34996C20.2166 10.25 20.6666 11.3555 20.6666 12.6666C20.6666 13.9777 20.2166 15.0833 19.3166 15.9833C18.4166 16.8833 17.3111 17.3333 16 17.3333ZM16 29.3333C14.1555 29.3333 12.4222 28.9833 10.8 28.2833C9.17774 27.5833 7.76663 26.6333 6.56663 25.4333C5.36663 24.2333 4.41663 22.8222 3.71663 21.2C3.01663 19.5777 2.66663 17.8444 2.66663 16C2.66663 14.1555 3.01663 12.4222 3.71663 10.8C4.41663 9.17774 5.36663 7.76663 6.56663 6.56663C7.76663 5.36663 9.17774 4.41663 10.8 3.71663C12.4222 3.01663 14.1555 2.66663 16 2.66663C17.8444 2.66663 19.5777 3.01663 21.2 3.71663C22.8222 4.41663 24.2333 5.36663 25.4333 6.56663C26.6333 7.76663 27.5833 9.17774 28.2833 10.8C28.9833 12.4222 29.3333 14.1555 29.3333 16C29.3333 17.8444 28.9833 19.5777 28.2833 21.2C27.5833 22.8222 26.6333 24.2333 25.4333 25.4333C24.2333 26.6333 22.8222 27.5833 21.2 28.2833C19.5777 28.9833 17.8444 29.3333 16 29.3333ZM16 26.6666C17.1777 26.6666 18.2888 26.4944 19.3333 26.15C20.3777 25.8055 21.3333 25.3111 22.2 24.6666C21.3333 24.0222 20.3777 23.5277 19.3333 23.1833C18.2888 22.8388 17.1777 22.6666 16 22.6666C14.8222 22.6666 13.7111 22.8388 12.6666 23.1833C11.6222 23.5277 10.6666 24.0222 9.79996 24.6666C10.6666 25.3111 11.6222 25.8055 12.6666 26.15C13.7111 26.4944 14.8222 26.6666 16 26.6666ZM16 14.6666C16.5777 14.6666 17.0555 14.4777 17.4333 14.1C17.8111 13.7222 18 13.2444 18 12.6666C18 12.0888 17.8111 11.6111 17.4333 11.2333C17.0555 10.8555 16.5777 10.6666 16 10.6666C15.4222 10.6666 14.9444 10.8555 14.5666 11.2333C14.1888 11.6111 14 12.0888 14 12.6666C14 13.2444 14.1888 13.7222 14.5666 14.1C14.9444 14.4777 15.4222 14.6666 16 14.6666Z" fill="#141414"/>
</g>
</svg>
