<svg width="120" height="120" viewBox="0 0 120 120" fill="none" xmlns="http://www.w3.org/2000/svg">
<mask id="mask0_237_188" style="mask-type:alpha" maskUnits="userSpaceOnUse" x="0" y="0" width="120" height="120">
<rect width="120" height="120" fill="#D9D9D9"/>
</mask>
<g mask="url(#mask0_237_188)">
<path d="M30 95.0002C25.8333 95.0002 22.2917 93.5419 19.375 90.6252C16.4583 87.7086 15 84.1669 15 80.0002H5V35.0002C5 32.2502 5.97917 29.8961 7.9375 27.9377C9.89583 25.9794 12.25 25.0002 15 25.0002H85L115 55.0002V80.0002H105C105 84.1669 103.542 87.7086 100.625 90.6252C97.7083 93.5419 94.1667 95.0002 90 95.0002C85.8333 95.0002 82.2917 93.5419 79.375 90.6252C76.4583 87.7086 75 84.1669 75 80.0002H45C45 84.1669 43.5417 87.7086 40.625 90.6252C37.7083 93.5419 34.1667 95.0002 30 95.0002ZM75 50.0002H95L80 35.0002H75V50.0002ZM45 50.0002H65V35.0002H45V50.0002ZM15 50.0002H35V35.0002H15V50.0002ZM30 86.2502C31.75 86.2502 33.2292 85.6461 34.4375 84.4377C35.6458 83.2294 36.25 81.7502 36.25 80.0002C36.25 78.2502 35.6458 76.7711 34.4375 75.5627C33.2292 74.3544 31.75 73.7502 30 73.7502C28.25 73.7502 26.7708 74.3544 25.5625 75.5627C24.3542 76.7711 23.75 78.2502 23.75 80.0002C23.75 81.7502 24.3542 83.2294 25.5625 84.4377C26.7708 85.6461 28.25 86.2502 30 86.2502ZM90 86.2502C91.75 86.2502 93.2292 85.6461 94.4375 84.4377C95.6458 83.2294 96.25 81.7502 96.25 80.0002C96.25 78.2502 95.6458 76.7711 94.4375 75.5627C93.2292 74.3544 91.75 73.7502 90 73.7502C88.25 73.7502 86.7708 74.3544 85.5625 75.5627C84.3542 76.7711 83.75 78.2502 83.75 80.0002C83.75 81.7502 84.3542 83.2294 85.5625 84.4377C86.7708 85.6461 88.25 86.2502 90 86.2502ZM15 70.0002H19C20.4167 68.5002 22.0417 67.2919 23.875 66.3752C25.7083 65.4586 27.75 65.0002 30 65.0002C32.25 65.0002 34.2917 65.4586 36.125 66.3752C37.9583 67.2919 39.5833 68.5002 41 70.0002H79C80.4167 68.5002 82.0417 67.2919 83.875 66.3752C85.7083 65.4586 87.75 65.0002 90 65.0002C92.25 65.0002 94.2917 65.4586 96.125 66.3752C97.9583 67.2919 99.5833 68.5002 101 70.0002H105V60.0002H15V70.0002Z" fill="white"/>
</g>
</svg>
