<svg width="32" height="32" viewBox="0 0 32 32" fill="none" xmlns="http://www.w3.org/2000/svg">
<mask id="mask0_243_265" style="mask-type:alpha" maskUnits="userSpaceOnUse" x="0" y="0" width="32" height="32">
<rect width="32" height="32" fill="#D9D9D9"/>
</mask>
<g mask="url(#mask0_243_265)">
<path d="M7.99996 18.6666H18.6666V16H7.99996V18.6666ZM7.99996 14.6666H24V12H7.99996V14.6666ZM7.99996 10.6666H24V7.99996H7.99996V10.6666ZM2.66663 29.3333V5.33329C2.66663 4.59996 2.92774 3.97218 3.44996 3.44996C3.97218 2.92774 4.59996 2.66663 5.33329 2.66663H26.6666C27.4 2.66663 28.0277 2.92774 28.55 3.44996C29.0722 3.97218 29.3333 4.59996 29.3333 5.33329V21.3333C29.3333 22.0666 29.0722 22.6944 28.55 23.2166C28.0277 23.7388 27.4 24 26.6666 24H7.99996L2.66663 29.3333ZM6.86663 21.3333H26.6666V5.33329H5.33329V22.8333L6.86663 21.3333Z" fill="#141414"/>
</g>
</svg>
