<svg width="32" height="32" viewBox="0 0 32 32" fill="none" xmlns="http://www.w3.org/2000/svg">
<mask id="mask0_243_274" style="mask-type:alpha" maskUnits="userSpaceOnUse" x="0" y="0" width="32" height="32">
<rect width="32" height="32" fill="#D9D9D9"/>
</mask>
<g mask="url(#mask0_243_274)">
<path d="M28.8 28L20.4 19.6C19.7333 20.1333 18.9666 20.5556 18.1 20.8667C17.2333 21.1778 16.3111 21.3333 15.3333 21.3333C12.9111 21.3333 10.8611 20.4944 9.18329 18.8167C7.50551 17.1389 6.66663 15.0889 6.66663 12.6667C6.66663 10.2444 7.50551 8.19444 9.18329 6.51667C10.8611 4.83889 12.9111 4 15.3333 4C17.7555 4 19.8055 4.83889 21.4833 6.51667C23.1611 8.19444 24 10.2444 24 12.6667C24 13.6444 23.8444 14.5667 23.5333 15.4333C23.2222 16.3 22.8 17.0667 22.2666 17.7333L30.6666 26.1333L28.8 28ZM15.3333 18.6667C17 18.6667 18.4166 18.0833 19.5833 16.9167C20.75 15.75 21.3333 14.3333 21.3333 12.6667C21.3333 11 20.75 9.58333 19.5833 8.41667C18.4166 7.25 17 6.66667 15.3333 6.66667C13.6666 6.66667 12.25 7.25 11.0833 8.41667C9.91663 9.58333 9.33329 11 9.33329 12.6667C9.33329 14.3333 9.91663 15.75 11.0833 16.9167C12.25 18.0833 13.6666 18.6667 15.3333 18.6667Z" fill="#141414"/>
</g>
</svg>
